<svg width="620" height="518" viewBox="0 0 620 518" fill="none" xmlns="http://www.w3.org/2000/svg">
<g clip-path="url(#clip0_1_2)">
<g filter="url(#filter0_d_1_2)">
<rect x="400.9" width="215" height="510" rx="15" fill="url(#paint0_linear_1_2)" shape-rendering="crispEdges"/>
</g>
<ellipse cx="400.4" cy="256" rx="206.5" ry="200" fill="black" fill-opacity="0.25"/>
<circle cx="400.9" cy="256" r="150" fill="white"/>
<path d="M455.109 370.849C459.352 379.839 470.157 383.778 478.553 378.455C501.101 364.156 519.369 343.837 531.189 319.638C545.655 290.022 549.599 256.361 542.371 224.203C535.143 192.045 517.175 163.309 491.427 142.731C470.391 125.918 445.301 116.706 418.848 113.919C408.969 112.878 400.9 121.046 400.9 130.979L400.9 251.965C400.9 254.622 401.488 257.246 402.622 259.649L455.109 370.849Z" fill="url(#paint1_angular_1_2)"/>
<g filter="url(#filter1_d_1_2)">
<circle cx="400.9" cy="255" r="75" fill="#D9D9D9"/>
</g>
<path d="M403.053 79.3659C401.013 81.4907 401.082 84.8669 403.206 86.9068C405.331 88.9467 408.708 88.8778 410.747 86.7529C412.787 84.628 412.718 81.2519 410.593 79.212C408.469 77.1721 405.092 77.241 403.053 79.3659ZM570.053 239.366C568.013 241.491 568.082 244.867 570.206 246.907C572.331 248.947 575.708 248.878 577.747 246.753C579.787 244.628 579.718 241.252 577.593 239.212C575.469 237.172 572.092 237.241 570.053 239.366ZM406.9 84.0594C483.517 84.0594 572.9 139.767 572.9 243.059L574.9 243.059C574.9 138.351 484.282 82.0594 406.9 82.0594L406.9 84.0594Z" fill="white"/>
<circle cx="527.4" cy="130.559" r="6" fill="#5944DC" stroke="white"/>
<path d="M527.114 130.9C526.993 130.14 527.741 129.534 528.46 129.81L542.204 135.086C542.923 135.362 543.074 136.312 542.475 136.797L531.034 146.062C530.436 146.546 529.537 146.202 529.417 145.441L527.114 130.9Z" fill="black" stroke="white" stroke-width="2"/>
<g filter="url(#filter2_d_1_2)">
<circle cx="400.9" cy="255" r="40" fill="#B997FF"/>
</g>
<path d="M417.393 243.141C417.471 242.316 416.866 241.584 416.041 241.507L402.601 240.239C401.776 240.161 401.044 240.766 400.966 241.591C400.889 242.416 401.494 243.148 402.319 243.225L414.266 244.352L413.139 256.299C413.061 257.124 413.666 257.856 414.491 257.934C415.316 258.012 416.048 257.406 416.125 256.581L417.393 243.141ZM387.856 268.156L416.856 244.156L414.944 241.844L385.944 265.844L387.856 268.156Z" fill="black"/>
<circle cx="446.403" cy="357.503" r="35" fill="black" fill-opacity="0.89"/>
<g filter="url(#filter3_d_1_2)">
<circle cx="446.4" cy="357.5" r="22.5" fill="#D9D9D9"/>
</g>
<g filter="url(#filter4_d_1_2)">
<rect x="132" y="49.2" width="176.8" height="113.6" rx="8" fill="#63666F"/>
</g>
<ellipse cx="150.8" cy="63.2" rx="6" ry="6" fill="#E7695E"/>
<ellipse cx="184.4" cy="63.2" rx="6" ry="6" fill="#88CC99"/>
<ellipse cx="167.6" cy="63.2" rx="6" ry="6" fill="#F9C74E"/>
<rect x="156.8" y="89.2001" width="80.8" height="8" rx="4" fill="#D9D9D9"/>
<rect x="156.8" y="106" width="53.6" height="8" rx="4" fill="#D9D9D9"/>
<path d="M156.8 141.2C156.8 138.991 158.591 137.2 160.8 137.2H238.4C240.609 137.2 242.4 138.991 242.4 141.2C242.4 143.409 240.609 145.2 238.4 145.2H160.8C158.591 145.2 156.8 143.409 156.8 141.2Z" fill="#D9D9D9"/>
<g filter="url(#filter5_d_1_2)">
<rect x="178.9" y="384" width="155.596" height="99.976" rx="7.04056" fill="#1E1E1E"/>
</g>
<g filter="url(#filter6_d_1_2)">
<rect x="199.9" y="358" width="155.596" height="99.976" rx="7.04056" fill="#63666F"/>
</g>
<rect x="267.59" y="442.65" width="25.0079" height="10" rx="5" transform="rotate(-89.3811 267.59 442.65)" fill="#D9D9D9"/>
<rect x="289.566" y="442.927" width="39.6685" height="10" rx="5" transform="rotate(-89.3812 289.566 442.927)" fill="#C272F8"/>
<ellipse cx="216.445" cy="370.321" rx="5.28042" ry="5.28042" fill="#E7695E"/>
<ellipse cx="231.23" cy="370.321" rx="5.28042" ry="5.28042" fill="#F9C74E"/>
<ellipse cx="246.015" cy="370.321" rx="5.28042" ry="5.28042" fill="#88CC99"/>
<rect x="226.05" y="442.989" width="18.3055" height="10" rx="4.85228" transform="rotate(-89.3811 226.05 442.989)" fill="#D9D9D9"/>
<rect x="309.401" y="442.927" width="21.2022" height="10" rx="5" transform="rotate(-89.3812 309.401 442.927)" fill="#D9D9D9"/>
<path d="M250.764 443.042C248.002 443.012 245.788 440.749 245.818 437.988L246.098 412.083C246.127 409.321 248.39 407.107 251.151 407.137C253.913 407.167 256.127 409.429 256.097 412.191L255.817 438.096C255.787 440.857 253.525 443.072 250.764 443.042Z" fill="#5944DC"/>
<circle cx="557.4" cy="14.5" r="6.5" fill="white"/>
<circle cx="578.4" cy="14.5" r="6.5" fill="#5A5AF8" stroke="white" stroke-width="2"/>
<rect x="7.6145" y="418.028" width="71.3038" height="71.3035" rx="22.5795" transform="rotate(5.3872 7.6145 418.028)" fill="#FD6B3D"/>
<rect x="222.291" y="217.445" width="71.3038" height="71.3035" rx="22.5795" transform="rotate(5.3872 222.291 217.445)" fill="#8080F8"/>
<path d="M77.1728 471.105C83.8895 473.079 90.9351 469.235 92.9096 462.518C94.8841 455.802 91.0399 448.756 84.3232 446.782C77.6065 444.807 70.5609 448.651 68.5864 455.368C66.6119 462.085 70.4561 469.13 77.1728 471.105ZM80.0886 461.227C97.9892 466.396 111.289 466.128 120.928 461.218C130.643 456.269 136.06 446.909 138.87 435.286C141.674 423.687 141.972 409.498 141.2 394.306C140.427 379.099 138.565 362.657 136.958 346.566C135.347 330.425 133.99 314.618 134.183 300.487C134.377 286.316 136.13 274.105 140.549 265.026C144.892 256.102 151.816 250.165 162.745 248.343C173.871 246.488 189.357 248.865 210.705 257.305L212.453 252.885C190.792 244.321 174.344 241.59 161.963 243.654C149.386 245.751 141.231 252.762 136.275 262.946C131.394 272.975 129.627 286.032 129.43 300.422C129.233 314.852 130.617 330.9 132.228 347.038C133.845 363.227 135.687 379.491 136.453 394.548C137.219 409.62 136.889 423.254 134.25 434.169C131.617 445.059 126.777 452.903 118.77 456.982C110.688 461.099 98.8032 461.683 81.4074 456.66L80.0886 461.227Z" fill="white"/>
<path d="M197.873 236.583L216.694 248.677C219.897 250.735 219.502 255.535 216.006 257.042L193.051 266.934C189.555 268.441 185.794 265.431 186.498 261.69L190.632 239.704C191.255 236.389 195.036 234.76 197.873 236.583Z" fill="#5944DC" stroke="white" stroke-width="2.37679"/>
<g filter="url(#filter7_d_1_2)">
<ellipse cx="39.7618" cy="456.87" rx="17.826" ry="17.8259" transform="rotate(5.3872 39.7618 456.87)" fill="#D9D9D9"/>
</g>
<g filter="url(#filter8_d_1_2)">
<ellipse cx="254.662" cy="253.92" rx="17.826" ry="17.8259" transform="rotate(5.3872 254.662 253.92)" fill="#D9D9D9"/>
</g>
<path d="M254.143 262.37C254.505 261.964 254.958 261.587 255.502 261.237C256.046 260.887 256.582 260.596 257.111 260.365C257.394 260.242 257.884 260.05 258.58 259.791C259.152 259.609 259.664 259.419 260.117 259.221C261.325 258.693 262.308 258.061 263.066 257.326L262.19 261.418C262.008 261.722 261.738 261.952 261.379 262.109C261.001 262.274 260.537 262.42 259.986 262.549C259.454 262.669 259.109 262.752 258.949 262.799C257.718 263.067 256.866 263.305 256.394 263.511C255.111 264.071 253.798 264.926 252.456 266.074L251.878 265.753L255.668 250.577L255.427 250.412C254.934 251.033 253.979 251.652 252.563 252.27C252.167 252.443 251.602 252.668 250.868 252.943C250.22 253.159 249.538 253.423 248.821 253.737C248.651 253.811 248.356 253.985 247.936 254.258C247.516 254.531 247.238 254.72 247.104 254.824L248.086 250.82C248.701 250.529 249.505 250.234 250.498 249.935C251.2 249.741 251.834 249.52 252.401 249.273C254.647 248.292 256.312 247.317 257.395 246.35L257.816 246.773L253.939 262.29L254.143 262.37Z" fill="#634444"/>
</g>
<defs>
<filter id="filter0_d_1_2" x="396.9" y="0" width="223" height="518" filterUnits="userSpaceOnUse" color-interpolation-filters="sRGB">
<feFlood flood-opacity="0" result="BackgroundImageFix"/>
<feColorMatrix in="SourceAlpha" type="matrix" values="0 0 0 0 0 0 0 0 0 0 0 0 0 0 0 0 0 0 127 0" result="hardAlpha"/>
<feOffset dy="4"/>
<feGaussianBlur stdDeviation="2"/>
<feComposite in2="hardAlpha" operator="out"/>
<feColorMatrix type="matrix" values="0 0 0 0 0 0 0 0 0 0 0 0 0 0 0 0 0 0 0.25 0"/>
<feBlend mode="normal" in2="BackgroundImageFix" result="effect1_dropShadow_1_2"/>
<feBlend mode="normal" in="SourceGraphic" in2="effect1_dropShadow_1_2" result="shape"/>
</filter>
<filter id="filter1_d_1_2" x="320.9" y="179" width="160" height="160" filterUnits="userSpaceOnUse" color-interpolation-filters="sRGB">
<feFlood flood-opacity="0" result="BackgroundImageFix"/>
<feColorMatrix in="SourceAlpha" type="matrix" values="0 0 0 0 0 0 0 0 0 0 0 0 0 0 0 0 0 0 127 0" result="hardAlpha"/>
<feMorphology radius="3" operator="dilate" in="SourceAlpha" result="effect1_dropShadow_1_2"/>
<feOffset dy="4"/>
<feGaussianBlur stdDeviation="1"/>
<feComposite in2="hardAlpha" operator="out"/>
<feColorMatrix type="matrix" values="0 0 0 0 0 0 0 0 0 0 0 0 0 0 0 0 0 0 0.21 0"/>
<feBlend mode="normal" in2="BackgroundImageFix" result="effect1_dropShadow_1_2"/>
<feBlend mode="normal" in="SourceGraphic" in2="effect1_dropShadow_1_2" result="shape"/>
</filter>
<filter id="filter2_d_1_2" x="356.9" y="215" width="88" height="88" filterUnits="userSpaceOnUse" color-interpolation-filters="sRGB">
<feFlood flood-opacity="0" result="BackgroundImageFix"/>
<feColorMatrix in="SourceAlpha" type="matrix" values="0 0 0 0 0 0 0 0 0 0 0 0 0 0 0 0 0 0 127 0" result="hardAlpha"/>
<feOffset dy="4"/>
<feGaussianBlur stdDeviation="2"/>
<feComposite in2="hardAlpha" operator="out"/>
<feColorMatrix type="matrix" values="0 0 0 0 0 0 0 0 0 0 0 0 0 0 0 0 0 0 0.25 0"/>
<feBlend mode="normal" in2="BackgroundImageFix" result="effect1_dropShadow_1_2"/>
<feBlend mode="normal" in="SourceGraphic" in2="effect1_dropShadow_1_2" result="shape"/>
</filter>
<filter id="filter3_d_1_2" x="419.9" y="335" width="53" height="53" filterUnits="userSpaceOnUse" color-interpolation-filters="sRGB">
<feFlood flood-opacity="0" result="BackgroundImageFix"/>
<feColorMatrix in="SourceAlpha" type="matrix" values="0 0 0 0 0 0 0 0 0 0 0 0 0 0 0 0 0 0 127 0" result="hardAlpha"/>
<feOffset dy="4"/>
<feGaussianBlur stdDeviation="2"/>
<feComposite in2="hardAlpha" operator="out"/>
<feColorMatrix type="matrix" values="0 0 0 0 1 0 0 0 0 1 0 0 0 0 1 0 0 0 0.25 0"/>
<feBlend mode="normal" in2="BackgroundImageFix" result="effect1_dropShadow_1_2"/>
<feBlend mode="normal" in="SourceGraphic" in2="effect1_dropShadow_1_2" result="shape"/>
</filter>
<filter id="filter4_d_1_2" x="117.76" y="48.56" width="192.48" height="129.28" filterUnits="userSpaceOnUse" color-interpolation-filters="sRGB">
<feFlood flood-opacity="0" result="BackgroundImageFix"/>
<feColorMatrix in="SourceAlpha" type="matrix" values="0 0 0 0 0 0 0 0 0 0 0 0 0 0 0 0 0 0 127 0" result="hardAlpha"/>
<feOffset dx="-6.4" dy="7.2"/>
<feGaussianBlur stdDeviation="3.92"/>
<feComposite in2="hardAlpha" operator="out"/>
<feColorMatrix type="matrix" values="0 0 0 0 0 0 0 0 0 0 0 0 0 0 0 0 0 0 0.25 0"/>
<feBlend mode="normal" in2="BackgroundImageFix" result="effect1_dropShadow_1_2"/>
<feBlend mode="normal" in="SourceGraphic" in2="effect1_dropShadow_1_2" result="shape"/>
</filter>
<filter id="filter5_d_1_2" x="174.9" y="384" width="163.596" height="107.976" filterUnits="userSpaceOnUse" color-interpolation-filters="sRGB">
<feFlood flood-opacity="0" result="BackgroundImageFix"/>
<feColorMatrix in="SourceAlpha" type="matrix" values="0 0 0 0 0 0 0 0 0 0 0 0 0 0 0 0 0 0 127 0" result="hardAlpha"/>
<feOffset dy="4"/>
<feGaussianBlur stdDeviation="2"/>
<feComposite in2="hardAlpha" operator="out"/>
<feColorMatrix type="matrix" values="0 0 0 0 0 0 0 0 0 0 0 0 0 0 0 0 0 0 0.25 0"/>
<feBlend mode="normal" in2="BackgroundImageFix" result="effect1_dropShadow_1_2"/>
<feBlend mode="normal" in="SourceGraphic" in2="effect1_dropShadow_1_2" result="shape"/>
</filter>
<filter id="filter6_d_1_2" x="187.368" y="357.437" width="169.396" height="113.776" filterUnits="userSpaceOnUse" color-interpolation-filters="sRGB">
<feFlood flood-opacity="0" result="BackgroundImageFix"/>
<feColorMatrix in="SourceAlpha" type="matrix" values="0 0 0 0 0 0 0 0 0 0 0 0 0 0 0 0 0 0 127 0" result="hardAlpha"/>
<feOffset dx="-5.63245" dy="6.33651"/>
<feGaussianBlur stdDeviation="3.44988"/>
<feComposite in2="hardAlpha" operator="out"/>
<feColorMatrix type="matrix" values="0 0 0 0 0 0 0 0 0 0 0 0 0 0 0 0 0 0 0.25 0"/>
<feBlend mode="normal" in2="BackgroundImageFix" result="effect1_dropShadow_1_2"/>
<feBlend mode="normal" in="SourceGraphic" in2="effect1_dropShadow_1_2" result="shape"/>
</filter>
<filter id="filter7_d_1_2" x="19.5579" y="439.043" width="38.0311" height="40.4078" filterUnits="userSpaceOnUse" color-interpolation-filters="sRGB">
<feFlood flood-opacity="0" result="BackgroundImageFix"/>
<feColorMatrix in="SourceAlpha" type="matrix" values="0 0 0 0 0 0 0 0 0 0 0 0 0 0 0 0 0 0 127 0" result="hardAlpha"/>
<feOffset dx="-2.37679" dy="4.75358"/>
<feComposite in2="hardAlpha" operator="out"/>
<feColorMatrix type="matrix" values="0 0 0 0 0 0 0 0 0 0 0 0 0 0 0 0 0 0 0.25 0"/>
<feBlend mode="normal" in2="BackgroundImageFix" result="effect1_dropShadow_1_2"/>
<feBlend mode="normal" in="SourceGraphic" in2="effect1_dropShadow_1_2" result="shape"/>
</filter>
<filter id="filter8_d_1_2" x="234.458" y="236.093" width="38.0311" height="40.4078" filterUnits="userSpaceOnUse" color-interpolation-filters="sRGB">
<feFlood flood-opacity="0" result="BackgroundImageFix"/>
<feColorMatrix in="SourceAlpha" type="matrix" values="0 0 0 0 0 0 0 0 0 0 0 0 0 0 0 0 0 0 127 0" result="hardAlpha"/>
<feOffset dx="-2.37679" dy="4.75358"/>
<feComposite in2="hardAlpha" operator="out"/>
<feColorMatrix type="matrix" values="0 0 0 0 0 0 0 0 0 0 0 0 0 0 0 0 0 0 0.25 0"/>
<feBlend mode="normal" in2="BackgroundImageFix" result="effect1_dropShadow_1_2"/>
<feBlend mode="normal" in="SourceGraphic" in2="effect1_dropShadow_1_2" result="shape"/>
</filter>
<linearGradient id="paint0_linear_1_2" x1="508.4" y1="0" x2="508.4" y2="510" gradientUnits="userSpaceOnUse">
<stop stop-color="#C272F8"/>
<stop offset="0.553191" stop-color="#D9D9D9" stop-opacity="0.87"/>
<stop offset="1" stop-color="#5A5AF8"/>
</linearGradient>
<radialGradient id="paint1_angular_1_2" cx="0" cy="0" r="1" gradientUnits="userSpaceOnUse" gradientTransform="translate(400.9 256) rotate(-90) scale(146)">
<stop stop-color="#C272F8" stop-opacity="0.82"/>
<stop offset="0.454166" stop-color="#61BFFF"/>
<stop offset="1" stop-color="#5A5AF8"/>
</radialGradient>
<clipPath id="clip0_1_2">
<rect width="619.08" height="518" fill="white" transform="translate(0.920166)"/>
</clipPath>
</defs>
</svg>
