<svg width="620" height="518" viewBox="0 0 620 518" fill="none" xmlns="http://www.w3.org/2000/svg">
<g filter="url(#filter0_d_1_2)">
<rect x="399.98" width="215" height="510" rx="15" fill="url(#paint0_linear_1_2)" shape-rendering="crispEdges"/>
</g>
<ellipse cx="399.48" cy="256" rx="206.5" ry="200" fill="black" fill-opacity="0.09"/>
<circle cx="399.98" cy="256" r="150" fill="white"/>
<path d="M454.189 370.849C458.432 379.839 469.237 383.778 477.633 378.455C500.18 364.156 518.449 343.837 530.269 319.638C544.735 290.022 548.678 256.361 541.451 224.203C534.223 192.045 516.254 163.309 490.507 142.731C469.471 125.918 444.381 116.706 417.927 113.919C408.049 112.878 399.98 121.046 399.98 130.979L399.98 251.965C399.98 254.622 400.568 257.246 401.702 259.649L454.189 370.849Z" fill="url(#paint1_angular_1_2)"/>
<g filter="url(#filter1_d_1_2)">
<circle cx="399.98" cy="255" r="75" fill="#D9D9D9"/>
</g>
<path d="M402.132 79.3659C400.093 81.4907 400.161 84.8669 402.286 86.9068C404.411 88.9467 407.787 88.8778 409.827 86.7529C411.867 84.628 411.798 81.2519 409.673 79.212C407.548 77.1721 404.172 77.241 402.132 79.3659ZM569.132 239.366C567.093 241.491 567.161 244.867 569.286 246.907C571.411 248.947 574.787 248.878 576.827 246.753C578.867 244.628 578.798 241.252 576.673 239.212C574.548 237.172 571.172 237.241 569.132 239.366ZM405.98 84.0594C482.597 84.0594 571.98 139.767 571.98 243.059L573.98 243.059C573.98 138.351 483.362 82.0594 405.98 82.0594L405.98 84.0594Z" fill="white"/>
<circle cx="526.48" cy="130.559" r="6" fill="#5944DC" stroke="white"/>
<path d="M526.194 130.9C526.073 130.14 526.821 129.534 527.54 129.81L541.284 135.086C542.003 135.362 542.153 136.312 541.555 136.797L530.114 146.062C529.515 146.546 528.617 146.202 528.497 145.441L526.194 130.9Z" fill="black" stroke="white" stroke-width="2"/>
<g filter="url(#filter2_d_1_2)">
<circle cx="399.98" cy="255" r="40" fill="#B997FF"/>
</g>
<path d="M416.473 243.141C416.551 242.316 415.946 241.584 415.121 241.507L401.68 240.239C400.856 240.161 400.124 240.766 400.046 241.591C399.968 242.416 400.574 243.148 401.399 243.225L413.346 244.352L412.219 256.299C412.141 257.124 412.746 257.856 413.571 257.934C414.396 258.012 415.127 257.406 415.205 256.581L416.473 243.141ZM386.936 268.156L415.936 244.156L414.024 241.844L385.024 265.844L386.936 268.156Z" fill="black"/>
<circle cx="445.483" cy="357.503" r="35" fill="black" fill-opacity="0.89"/>
<g filter="url(#filter3_d_1_2)">
<circle cx="445.48" cy="357.5" r="22.5" fill="#D9D9D9"/>
</g>
<g filter="url(#filter4_d_1_2)">
<rect x="131.08" y="49.2" width="176.8" height="113.6" rx="8" fill="#63666F"/>
</g>
<ellipse cx="149.88" cy="63.2" rx="6" ry="6" fill="#E7695E"/>
<ellipse cx="183.48" cy="63.2" rx="6" ry="6" fill="#88CC99"/>
<ellipse cx="166.68" cy="63.2" rx="6" ry="6" fill="#F9C74E"/>
<rect x="155.88" y="89.2001" width="80.8" height="8" rx="4" fill="#D9D9D9"/>
<rect x="155.88" y="106" width="53.6" height="8" rx="4" fill="#D9D9D9"/>
<path d="M155.88 141.2C155.88 138.991 157.671 137.2 159.88 137.2H237.48C239.689 137.2 241.48 138.991 241.48 141.2C241.48 143.409 239.689 145.2 237.48 145.2H159.88C157.671 145.2 155.88 143.409 155.88 141.2Z" fill="#D9D9D9"/>
<g filter="url(#filter5_d_1_2)">
<rect x="177.98" y="384" width="155.596" height="99.976" rx="7.04056" fill="#1E1E1E"/>
</g>
<g filter="url(#filter6_d_1_2)">
<rect x="198.98" y="358" width="155.596" height="99.976" rx="7.04056" fill="#63666F"/>
</g>
<rect x="266.67" y="442.65" width="25.0079" height="10" rx="5" transform="rotate(-89.3811 266.67 442.65)" fill="#D9D9D9"/>
<rect x="288.646" y="442.927" width="39.6685" height="10" rx="5" transform="rotate(-89.3812 288.646 442.927)" fill="#C272F8"/>
<ellipse cx="215.525" cy="370.321" rx="5.28042" ry="5.28042" fill="#E7695E"/>
<ellipse cx="230.31" cy="370.321" rx="5.28042" ry="5.28042" fill="#F9C74E"/>
<ellipse cx="245.095" cy="370.321" rx="5.28042" ry="5.28042" fill="#88CC99"/>
<rect x="225.13" y="442.989" width="18.3055" height="10" rx="4.85228" transform="rotate(-89.3811 225.13 442.989)" fill="#D9D9D9"/>
<rect x="308.48" y="442.927" width="21.2022" height="10" rx="5" transform="rotate(-89.3812 308.48 442.927)" fill="#D9D9D9"/>
<path d="M249.843 443.042C247.082 443.012 244.868 440.749 244.898 437.988L245.177 412.083C245.207 409.321 247.47 407.107 250.231 407.137C252.992 407.167 255.207 409.429 255.177 412.191L254.897 438.096C254.867 440.857 252.605 443.072 249.843 443.042Z" fill="#5944DC"/>
<circle cx="556.48" cy="14.5" r="6.5" fill="white"/>
<circle cx="577.48" cy="14.5" r="6.5" fill="#5A5AF8" stroke="white" stroke-width="2"/>
<rect x="23.6902" y="382.496" width="60.6083" height="60.608" rx="19.1926" transform="rotate(5.38719 23.6902 382.496)" fill="#FD6B3D"/>
<rect x="206.165" y="212" width="60.6083" height="60.608" rx="19.1926" transform="rotate(5.38719 206.165 212)" fill="#8080F8"/>
<path d="M82.815 427.611C88.5242 429.289 94.5129 426.022 96.1913 420.313C97.8696 414.603 94.602 408.615 88.8928 406.936C83.1837 405.258 77.1949 408.526 75.5166 414.235C73.8382 419.944 77.1058 425.933 82.815 427.611ZM85.2934 419.215C100.509 423.608 111.813 423.381 120.007 419.207C128.264 415 132.869 407.044 135.258 397.165C137.641 387.306 137.895 375.245 137.238 362.333C136.581 349.406 134.998 335.431 133.633 321.753C132.263 308.033 131.11 294.598 131.274 282.586C131.438 270.541 132.929 260.161 136.685 252.444C140.377 244.859 146.262 239.813 155.552 238.264C165.009 236.687 178.171 238.707 196.318 245.882L197.803 242.124C179.392 234.845 165.41 232.524 154.887 234.278C144.196 236.061 137.265 242.02 133.052 250.676C128.903 259.201 127.401 270.299 127.234 282.531C127.066 294.796 128.243 308.437 129.612 322.155C130.986 335.915 132.552 349.74 133.203 362.538C133.854 375.349 133.574 386.938 131.331 396.215C129.093 405.472 124.978 412.14 118.173 415.607C111.303 419.106 101.201 419.603 86.4144 415.333L85.2934 419.215Z" fill="white"/>
<path d="M185.41 228.267L201.408 238.547C204.13 240.297 203.794 244.377 200.823 245.657L181.311 254.066C178.34 255.346 175.143 252.789 175.741 249.608L179.255 230.92C179.785 228.103 182.998 226.718 185.41 228.267Z" fill="#5944DC" stroke="white" stroke-width="2.02027"/>
<g filter="url(#filter7_d_1_2)">
<ellipse cx="51.0155" cy="415.511" rx="15.1521" ry="15.152" transform="rotate(5.38719 51.0155 415.511)" fill="#D9D9D9"/>
</g>
<g filter="url(#filter8_d_1_2)">
<ellipse cx="233.681" cy="243.004" rx="15.1521" ry="15.152" transform="rotate(5.38719 233.681 243.004)" fill="#D9D9D9"/>
</g>
<path d="M233.239 250.186C233.547 249.842 233.932 249.521 234.395 249.223C234.857 248.926 235.313 248.679 235.762 248.482C236.003 248.377 236.419 248.215 237.011 247.994C237.497 247.839 237.933 247.678 238.318 247.509C239.345 247.061 240.18 246.524 240.824 245.899L240.079 249.377C239.925 249.635 239.695 249.831 239.39 249.964C239.069 250.105 238.675 250.229 238.206 250.338C237.754 250.44 237.46 250.511 237.325 250.551C236.278 250.779 235.554 250.981 235.153 251.156C234.062 251.633 232.946 252.359 231.806 253.335L231.314 253.062L234.535 240.162L234.331 240.023C233.911 240.55 233.1 241.076 231.897 241.602C231.56 241.749 231.079 241.94 230.456 242.174C229.905 242.357 229.325 242.582 228.715 242.848C228.571 242.911 228.32 243.059 227.963 243.291C227.606 243.524 227.37 243.684 227.256 243.772L228.091 240.369C228.614 240.122 229.297 239.871 230.141 239.617C230.738 239.452 231.277 239.264 231.758 239.054C233.668 238.22 235.083 237.392 236.004 236.569L236.361 236.929L233.066 250.119L233.239 250.186Z" fill="#634444"/>
<defs>
<filter id="filter0_d_1_2" x="395.98" y="0" width="223" height="518" filterUnits="userSpaceOnUse" color-interpolation-filters="sRGB">
<feFlood flood-opacity="0" result="BackgroundImageFix"/>
<feColorMatrix in="SourceAlpha" type="matrix" values="0 0 0 0 0 0 0 0 0 0 0 0 0 0 0 0 0 0 127 0" result="hardAlpha"/>
<feOffset dy="4"/>
<feGaussianBlur stdDeviation="2"/>
<feComposite in2="hardAlpha" operator="out"/>
<feColorMatrix type="matrix" values="0 0 0 0 0 0 0 0 0 0 0 0 0 0 0 0 0 0 0.25 0"/>
<feBlend mode="normal" in2="BackgroundImageFix" result="effect1_dropShadow_1_2"/>
<feBlend mode="normal" in="SourceGraphic" in2="effect1_dropShadow_1_2" result="shape"/>
</filter>
<filter id="filter1_d_1_2" x="319.98" y="179" width="160" height="160" filterUnits="userSpaceOnUse" color-interpolation-filters="sRGB">
<feFlood flood-opacity="0" result="BackgroundImageFix"/>
<feColorMatrix in="SourceAlpha" type="matrix" values="0 0 0 0 0 0 0 0 0 0 0 0 0 0 0 0 0 0 127 0" result="hardAlpha"/>
<feMorphology radius="3" operator="dilate" in="SourceAlpha" result="effect1_dropShadow_1_2"/>
<feOffset dy="4"/>
<feGaussianBlur stdDeviation="1"/>
<feComposite in2="hardAlpha" operator="out"/>
<feColorMatrix type="matrix" values="0 0 0 0 0 0 0 0 0 0 0 0 0 0 0 0 0 0 0.21 0"/>
<feBlend mode="normal" in2="BackgroundImageFix" result="effect1_dropShadow_1_2"/>
<feBlend mode="normal" in="SourceGraphic" in2="effect1_dropShadow_1_2" result="shape"/>
</filter>
<filter id="filter2_d_1_2" x="355.98" y="215" width="88" height="88" filterUnits="userSpaceOnUse" color-interpolation-filters="sRGB">
<feFlood flood-opacity="0" result="BackgroundImageFix"/>
<feColorMatrix in="SourceAlpha" type="matrix" values="0 0 0 0 0 0 0 0 0 0 0 0 0 0 0 0 0 0 127 0" result="hardAlpha"/>
<feOffset dy="4"/>
<feGaussianBlur stdDeviation="2"/>
<feComposite in2="hardAlpha" operator="out"/>
<feColorMatrix type="matrix" values="0 0 0 0 0 0 0 0 0 0 0 0 0 0 0 0 0 0 0.25 0"/>
<feBlend mode="normal" in2="BackgroundImageFix" result="effect1_dropShadow_1_2"/>
<feBlend mode="normal" in="SourceGraphic" in2="effect1_dropShadow_1_2" result="shape"/>
</filter>
<filter id="filter3_d_1_2" x="418.98" y="335" width="53" height="53" filterUnits="userSpaceOnUse" color-interpolation-filters="sRGB">
<feFlood flood-opacity="0" result="BackgroundImageFix"/>
<feColorMatrix in="SourceAlpha" type="matrix" values="0 0 0 0 0 0 0 0 0 0 0 0 0 0 0 0 0 0 127 0" result="hardAlpha"/>
<feOffset dy="4"/>
<feGaussianBlur stdDeviation="2"/>
<feComposite in2="hardAlpha" operator="out"/>
<feColorMatrix type="matrix" values="0 0 0 0 1 0 0 0 0 1 0 0 0 0 1 0 0 0 0.25 0"/>
<feBlend mode="normal" in2="BackgroundImageFix" result="effect1_dropShadow_1_2"/>
<feBlend mode="normal" in="SourceGraphic" in2="effect1_dropShadow_1_2" result="shape"/>
</filter>
<filter id="filter4_d_1_2" x="116.84" y="48.56" width="192.48" height="129.28" filterUnits="userSpaceOnUse" color-interpolation-filters="sRGB">
<feFlood flood-opacity="0" result="BackgroundImageFix"/>
<feColorMatrix in="SourceAlpha" type="matrix" values="0 0 0 0 0 0 0 0 0 0 0 0 0 0 0 0 0 0 127 0" result="hardAlpha"/>
<feOffset dx="-6.4" dy="7.2"/>
<feGaussianBlur stdDeviation="3.92"/>
<feComposite in2="hardAlpha" operator="out"/>
<feColorMatrix type="matrix" values="0 0 0 0 0 0 0 0 0 0 0 0 0 0 0 0 0 0 0.25 0"/>
<feBlend mode="normal" in2="BackgroundImageFix" result="effect1_dropShadow_1_2"/>
<feBlend mode="normal" in="SourceGraphic" in2="effect1_dropShadow_1_2" result="shape"/>
</filter>
<filter id="filter5_d_1_2" x="173.98" y="384" width="163.596" height="107.976" filterUnits="userSpaceOnUse" color-interpolation-filters="sRGB">
<feFlood flood-opacity="0" result="BackgroundImageFix"/>
<feColorMatrix in="SourceAlpha" type="matrix" values="0 0 0 0 0 0 0 0 0 0 0 0 0 0 0 0 0 0 127 0" result="hardAlpha"/>
<feOffset dy="4"/>
<feGaussianBlur stdDeviation="2"/>
<feComposite in2="hardAlpha" operator="out"/>
<feColorMatrix type="matrix" values="0 0 0 0 0 0 0 0 0 0 0 0 0 0 0 0 0 0 0.25 0"/>
<feBlend mode="normal" in2="BackgroundImageFix" result="effect1_dropShadow_1_2"/>
<feBlend mode="normal" in="SourceGraphic" in2="effect1_dropShadow_1_2" result="shape"/>
</filter>
<filter id="filter6_d_1_2" x="186.448" y="357.437" width="169.396" height="113.776" filterUnits="userSpaceOnUse" color-interpolation-filters="sRGB">
<feFlood flood-opacity="0" result="BackgroundImageFix"/>
<feColorMatrix in="SourceAlpha" type="matrix" values="0 0 0 0 0 0 0 0 0 0 0 0 0 0 0 0 0 0 127 0" result="hardAlpha"/>
<feOffset dx="-5.63245" dy="6.33651"/>
<feGaussianBlur stdDeviation="3.44988"/>
<feComposite in2="hardAlpha" operator="out"/>
<feColorMatrix type="matrix" values="0 0 0 0 0 0 0 0 0 0 0 0 0 0 0 0 0 0 0.25 0"/>
<feBlend mode="normal" in2="BackgroundImageFix" result="effect1_dropShadow_1_2"/>
<feBlend mode="normal" in="SourceGraphic" in2="effect1_dropShadow_1_2" result="shape"/>
</filter>
<filter id="filter7_d_1_2" x="33.8422" y="400.358" width="32.3264" height="34.3466" filterUnits="userSpaceOnUse" color-interpolation-filters="sRGB">
<feFlood flood-opacity="0" result="BackgroundImageFix"/>
<feColorMatrix in="SourceAlpha" type="matrix" values="0 0 0 0 0 0 0 0 0 0 0 0 0 0 0 0 0 0 127 0" result="hardAlpha"/>
<feOffset dx="-2.02027" dy="4.04054"/>
<feComposite in2="hardAlpha" operator="out"/>
<feColorMatrix type="matrix" values="0 0 0 0 0 0 0 0 0 0 0 0 0 0 0 0 0 0 0.25 0"/>
<feBlend mode="normal" in2="BackgroundImageFix" result="effect1_dropShadow_1_2"/>
<feBlend mode="normal" in="SourceGraphic" in2="effect1_dropShadow_1_2" result="shape"/>
</filter>
<filter id="filter8_d_1_2" x="216.508" y="227.851" width="32.3265" height="34.3466" filterUnits="userSpaceOnUse" color-interpolation-filters="sRGB">
<feFlood flood-opacity="0" result="BackgroundImageFix"/>
<feColorMatrix in="SourceAlpha" type="matrix" values="0 0 0 0 0 0 0 0 0 0 0 0 0 0 0 0 0 0 127 0" result="hardAlpha"/>
<feOffset dx="-2.02027" dy="4.04054"/>
<feComposite in2="hardAlpha" operator="out"/>
<feColorMatrix type="matrix" values="0 0 0 0 0 0 0 0 0 0 0 0 0 0 0 0 0 0 0.25 0"/>
<feBlend mode="normal" in2="BackgroundImageFix" result="effect1_dropShadow_1_2"/>
<feBlend mode="normal" in="SourceGraphic" in2="effect1_dropShadow_1_2" result="shape"/>
</filter>
<linearGradient id="paint0_linear_1_2" x1="507.48" y1="0" x2="507.48" y2="510" gradientUnits="userSpaceOnUse">
<stop stop-color="#C272F8"/>
<stop offset="0.553191" stop-color="#D9D9D9" stop-opacity="0.87"/>
<stop offset="1" stop-color="#5A5AF8"/>
</linearGradient>
<radialGradient id="paint1_angular_1_2" cx="0" cy="0" r="1" gradientUnits="userSpaceOnUse" gradientTransform="translate(399.98 256) rotate(-90) scale(146)">
<stop stop-color="#C272F8" stop-opacity="0.82"/>
<stop offset="0.454166" stop-color="#61BFFF"/>
<stop offset="1" stop-color="#5A5AF8"/>
</radialGradient>
</defs>
</svg>
