<svg width="415" height="408" viewBox="0 0 415 408" fill="none" xmlns="http://www.w3.org/2000/svg">
<g clip-path="url(#clip0_8_130)">
<ellipse cx="207.4" cy="208" rx="206.5" ry="200" fill="black" fill-opacity="0.25"/>
<circle cx="207.9" cy="208" r="150" fill="white"/>
<path d="M262.109 322.849C266.352 331.839 277.157 335.778 285.553 330.455C308.101 316.156 326.369 295.837 338.189 271.638C352.655 242.022 356.598 208.361 349.371 176.203C342.143 144.045 324.174 115.309 298.427 94.7311C277.391 77.9184 252.301 68.7062 225.847 65.919C215.969 64.8783 207.9 73.046 207.9 82.9789L207.9 203.965C207.9 206.622 208.488 209.246 209.622 211.649L262.109 322.849Z" fill="url(#paint0_angular_8_130)"/>
<g filter="url(#filter0_d_8_130)">
<circle cx="207.9" cy="207" r="75" fill="#D9D9D9"/>
</g>
<path d="M210.053 31.3659C208.013 33.4907 208.082 36.8669 210.207 38.9068C212.331 40.9467 215.708 40.8778 217.748 38.7529C219.787 36.628 219.718 33.2519 217.594 31.212C215.469 29.1721 212.093 29.241 210.053 31.3659ZM377.053 191.366C375.013 193.491 375.082 196.867 377.207 198.907C379.331 200.947 382.708 200.878 384.748 198.753C386.787 196.628 386.718 193.252 384.594 191.212C382.469 189.172 379.093 189.241 377.053 191.366ZM213.9 36.0594C290.518 36.0594 379.9 91.7675 379.9 195.059L381.9 195.059C381.9 90.3513 291.282 34.0594 213.9 34.0594L213.9 36.0594Z" fill="white"/>
<circle cx="334.4" cy="82.5594" r="6" fill="#5944DC" stroke="white"/>
<path d="M335.46 81.8101L349.204 87.0862C349.923 87.3621 350.074 88.3125 349.475 88.7969L338.034 98.062C337.436 98.5465 336.537 98.2017 336.417 97.4413L334.114 82.9002C333.993 82.1398 334.741 81.5343 335.46 81.8101Z" fill="black" stroke="white" stroke-width="2"/>
<g filter="url(#filter1_d_8_130)">
<circle cx="207.9" cy="207" r="40" fill="#B997FF"/>
</g>
<path d="M224.393 195.141C224.471 194.316 223.866 193.584 223.041 193.507L209.6 192.239C208.776 192.161 208.044 192.766 207.966 193.591C207.888 194.416 208.494 195.148 209.319 195.225L221.266 196.352L220.139 208.299C220.061 209.124 220.666 209.856 221.491 209.934C222.316 210.012 223.048 209.406 223.125 208.581L224.393 195.141ZM194.856 220.156L223.856 196.156L221.944 193.844L192.944 217.844L194.856 220.156Z" fill="black"/>
<circle cx="253.403" cy="309.503" r="35" fill="black" fill-opacity="0.89"/>
<g filter="url(#filter2_d_8_130)">
<circle cx="253.4" cy="309.5" r="22.5" fill="#D9D9D9"/>
</g>
</g>
<defs>
<filter id="filter0_d_8_130" x="127.9" y="131" width="160" height="160" filterUnits="userSpaceOnUse" color-interpolation-filters="sRGB">
<feFlood flood-opacity="0" result="BackgroundImageFix"/>
<feColorMatrix in="SourceAlpha" type="matrix" values="0 0 0 0 0 0 0 0 0 0 0 0 0 0 0 0 0 0 127 0" result="hardAlpha"/>
<feMorphology radius="3" operator="dilate" in="SourceAlpha" result="effect1_dropShadow_8_130"/>
<feOffset dy="4"/>
<feGaussianBlur stdDeviation="1"/>
<feComposite in2="hardAlpha" operator="out"/>
<feColorMatrix type="matrix" values="0 0 0 0 0 0 0 0 0 0 0 0 0 0 0 0 0 0 0.21 0"/>
<feBlend mode="normal" in2="BackgroundImageFix" result="effect1_dropShadow_8_130"/>
<feBlend mode="normal" in="SourceGraphic" in2="effect1_dropShadow_8_130" result="shape"/>
</filter>
<filter id="filter1_d_8_130" x="163.9" y="167" width="88" height="88" filterUnits="userSpaceOnUse" color-interpolation-filters="sRGB">
<feFlood flood-opacity="0" result="BackgroundImageFix"/>
<feColorMatrix in="SourceAlpha" type="matrix" values="0 0 0 0 0 0 0 0 0 0 0 0 0 0 0 0 0 0 127 0" result="hardAlpha"/>
<feOffset dy="4"/>
<feGaussianBlur stdDeviation="2"/>
<feComposite in2="hardAlpha" operator="out"/>
<feColorMatrix type="matrix" values="0 0 0 0 0 0 0 0 0 0 0 0 0 0 0 0 0 0 0.25 0"/>
<feBlend mode="normal" in2="BackgroundImageFix" result="effect1_dropShadow_8_130"/>
<feBlend mode="normal" in="SourceGraphic" in2="effect1_dropShadow_8_130" result="shape"/>
</filter>
<filter id="filter2_d_8_130" x="226.9" y="287" width="53" height="53" filterUnits="userSpaceOnUse" color-interpolation-filters="sRGB">
<feFlood flood-opacity="0" result="BackgroundImageFix"/>
<feColorMatrix in="SourceAlpha" type="matrix" values="0 0 0 0 0 0 0 0 0 0 0 0 0 0 0 0 0 0 127 0" result="hardAlpha"/>
<feOffset dy="4"/>
<feGaussianBlur stdDeviation="2"/>
<feComposite in2="hardAlpha" operator="out"/>
<feColorMatrix type="matrix" values="0 0 0 0 1 0 0 0 0 1 0 0 0 0 1 0 0 0 0.25 0"/>
<feBlend mode="normal" in2="BackgroundImageFix" result="effect1_dropShadow_8_130"/>
<feBlend mode="normal" in="SourceGraphic" in2="effect1_dropShadow_8_130" result="shape"/>
</filter>
<radialGradient id="paint0_angular_8_130" cx="0" cy="0" r="1" gradientUnits="userSpaceOnUse" gradientTransform="translate(207.9 208) rotate(-90) scale(146)">
<stop stop-color="#C272F8" stop-opacity="0.82"/>
<stop offset="0.454166" stop-color="#61BFFF"/>
<stop offset="1" stop-color="#5A5AF8"/>
</radialGradient>
<clipPath id="clip0_8_130">
<rect width="414.397" height="408" fill="white"/>
</clipPath>
</defs>
</svg>
